<?xml version="1.0" encoding="UTF-8" standalone="no"?>
<svg width="60px" height="60px" viewBox="0 0 60 60" version="1.1" xmlns="http://www.w3.org/2000/svg" xmlns:xlink="http://www.w3.org/1999/xlink">
    <!-- Generator: Sketch 3.8.3 (29802) - http://www.bohemiancoding.com/sketch -->
    <title>actus</title>
    <desc>Created with Sketch.</desc>
    <defs>
        <polygon id="path-1" points="0 51.2599983 59.9606292 51.2599983 59.9606292 0 0 0"></polygon>
    </defs>
    <g id="Page-1" stroke="none" stroke-width="1" fill="none" fill-rule="evenodd">
        <g id="actus">
            <g id="Group" transform="translate(0.000000, 4.000000)">
                <path d="M48.2447043,45.2294103 L7.36576023,45.2294103 C6.62847486,45.2294103 6.03058804,44.6315235 6.03058804,43.8942381 L6.03058804,7.36576023 C6.03058804,6.62847486 6.62847486,6.03058804 7.36576023,6.03058804 L43.8942381,6.03058804 C44.6315235,6.03058804 45.2294103,6.62847486 45.2294103,7.36576023 L45.2294103,48.2447043 L48.2447043,45.2294103 L48.2447043,45.2294103 Z M48.2447043,51.2599983 L51.2599983,51.2599983 L51.2599983,48.2447043 L51.2599983,7.36576023 C51.2599983,3.29787305 47.9621253,0 43.8942381,0 L7.36576023,0 C3.29787305,0 0,3.29787305 0,7.36576023 L0,43.8942381 C0,47.9621253 3.29787305,51.2599983 7.36576023,51.2599983 L48.2447043,51.2599983 L48.2447043,51.2599983 Z" id="Stroke-1" fill="#FFFFFF"></path>
                <path d="M52.5951102,45.2294103 C51.8578248,45.2294103 51.259938,44.6315235 51.259938,43.8942381 L51.259938,8.88034242 L48.244644,11.8956364 L56.9455764,11.8956364 L53.9302824,8.88034242 L53.9302824,43.8942381 C53.9302824,44.6315235 53.3323956,45.2294103 52.5951102,45.2294103 L52.5951102,45.2294103 Z M52.5951102,51.2599983 C56.6629974,51.2599983 59.9608704,47.9621253 59.9608704,43.8942381 L59.9608704,8.88034242 L59.9608704,5.8650484 L56.9455764,5.8650484 L48.244644,5.8650484 L45.22935,5.8650484 L45.22935,8.88034242 L45.22935,43.8942381 C45.22935,47.9621253 48.527223,51.2599983 52.5951102,51.2599983 L52.5951102,51.2599983 Z" id="Stroke-3" fill="#FFFFFF"></path>
                <polygon id="Stroke-5" fill="#FFFFFF" points="42.5156457 32.8667048 27.4391756 32.8667048 27.4391756 38.8972928 42.5156457 38.8972928"></polygon>
                <polygon id="Stroke-7" fill="#FFFFFF" points="42.5156457 24.725411 27.4391756 24.725411 27.4391756 30.755999 42.5156457 30.755999"></polygon>
                <polygon id="Stroke-9" fill="#FFFFFF" points="42.5156457 10.8550585 8.74435265 10.8550585 8.74435265 16.8856465 42.5156457 16.8856465"></polygon>
                <mask id="mask-2" fill="white">
                    <use xlink:href="#path-1"></use>
                </mask>
                <g id="Clip-12"></g>
                <polygon id="Fill-11" fill="#FFFFFF" mask="url(#mask-2)" points="8.74435265 38.8596017 22.8785434 38.8596017 22.8785434 24.725411 8.74435265 24.725411"></polygon>
            </g>
        </g>
    </g>
</svg>