<?xml version="1.0" encoding="UTF-8" standalone="no"?>
<svg width="60px" height="60px" viewBox="0 0 60 60" version="1.1" xmlns="http://www.w3.org/2000/svg" xmlns:xlink="http://www.w3.org/1999/xlink">
    <!-- Generator: Sketch 3.8.3 (29802) - http://www.bohemiancoding.com/sketch -->
    <title>briefing</title>
    <desc>Created with Sketch.</desc>
    <defs></defs>
    <g id="Page-1" stroke="none" stroke-width="1" fill="none" fill-rule="evenodd">
        <g id="briefing" fill="#FFFFFF">
            <g>
                <path d="M3,17.7 L47.7,17.7 C49.3568542,17.7 50.7,16.3568542 50.7,14.7 C50.7,13.0431458 49.3568542,11.7 47.7,11.7 L3,11.7 C1.34314575,11.7 0,13.0431458 0,14.7 C0,16.3568542 1.34314575,17.7 3,17.7 L3,17.7 Z" id="Stroke-1"></path>
                <polygon id="Fill-3" points="7.875 25.8831 13.8831 25.8831 13.8831 19.875 7.875 19.875"></polygon>
                <polygon id="Fill-4" points="17.5224 25.8831 23.5305 25.8831 23.5305 19.875 17.5224 19.875"></polygon>
                <polygon id="Fill-5" points="7.875 34.1949 13.8831 34.1949 13.8831 28.1868 7.875 28.1868"></polygon>
                <polygon id="Fill-6" points="7.875 42.5067 13.8831 42.5067 13.8831 36.4986 7.875 36.4986"></polygon>
                <g id="Group-19">
                    <path d="M41.43954,22.87911 C31.18884,22.87911 22.87914,31.18881 22.87914,41.43951 C22.87914,51.69021 31.18884,59.99991 41.43954,59.99991 C51.69024,59.99991 59.99994,51.69021 59.99994,41.43951 C59.99994,31.18881 51.69024,22.87911 41.43954,22.87911 M41.43954,28.87911 C48.36534,28.87911 53.99994,34.51371 53.99994,41.43951 C53.99994,48.36531 48.36534,53.99991 41.43954,53.99991 C34.51374,53.99991 28.87914,48.36531 28.87914,41.43951 C28.87914,34.51371 34.51374,28.87911 41.43954,28.87911" id="Fill-7"></path>
                    <path d="M19.87911,41.53701 C19.87911,39.83661 20.08311,38.09991 20.45721,36.59991 L17.39991,36.59991 L17.39991,42.59991 L19.90611,42.59991 C19.88901,42.29991 19.87911,41.89491 19.87911,41.53701" id="Fill-9"></path>
                    <path d="M23.4,29.44911 L23.4,28.19991 L17.4,28.19991 L17.4,34.19991 L21.135,34.19991 C21.7392,32.39991 22.5,30.91401 23.4,29.44911" id="Fill-11"></path>
                    <path d="M33.3,21.52773 L33.3,19.80003 L27.3,19.80003 L27.3,25.29693 C28.8,23.73093 30.9,22.44933 33.3,21.52773" id="Fill-13"></path>
                    <path d="M20.12562,44.7 L7.02192,44.7 C6.45822,44.7 6.00012,44.2416 6.00012,43.6782 L6.00012,7.0218 C6.00012,6.4584 6.45822,6 7.02192,6 L43.67802,6 C44.24142,6 44.70012,6.4584 44.70012,7.0218 L44.70012,20.1255 C46.81632,20.448 48.83172,21.0804 50.70012,21.9729 L50.70012,7.0218 C50.70012,3.15 47.55012,0 43.67802,0 L7.02192,0 C3.15012,0 0.00012,3.15 0.00012,7.0218 L0.00012,43.6782 C0.00012,47.55 3.15012,50.7 7.02192,50.7 L21.97272,50.7 C21.08052,48.8316 20.44812,46.8162 20.12562,44.7" id="Fill-15"></path>
                    <path d="M46.56093,38.4 L41.30133,38.4 L44.30133,41.4 L44.30133,33.2781 C44.30133,31.6212458 42.9581842,30.2781 41.30133,30.2781 C39.6444758,30.2781 38.30133,31.6212458 38.30133,33.2781 L38.30133,41.4 C38.30133,43.0568542 39.6444758,44.4 41.30133,44.4 L46.56093,44.4 C48.2177842,44.4 49.56093,43.0568542 49.56093,41.4 C49.56093,39.7431458 48.2177842,38.4 46.56093,38.4 L46.56093,38.4 Z" id="Stroke-17"></path>
                </g>
            </g>
        </g>
    </g>
</svg>