<?xml version="1.0" encoding="UTF-8" standalone="no"?>
<svg width="60px" height="60px" viewBox="0 0 60 60" version="1.1" xmlns="http://www.w3.org/2000/svg" xmlns:xlink="http://www.w3.org/1999/xlink">
    <!-- Generator: Sketch 3.8.3 (29802) - http://www.bohemiancoding.com/sketch -->
    <title>contact</title>
    <desc>Created with Sketch.</desc>
    <defs></defs>
    <g id="Page-1" stroke="none" stroke-width="1" fill="none" fill-rule="evenodd">
        <g id="contact" fill="#FFFFFF">
            <g id="Page-1">
                <path d="M40.0568822,18.1039146 C40.1943296,17.6915721 38.5706115,22.4185017 38.0289948,24.1170727 C37.4201372,26.026519 36.9123614,27.7893656 36.5007035,29.4736742 C35.5041637,33.5510419 35.1229539,36.9237206 35.5587126,39.646256 C36.2064027,43.6928971 38.7979619,46.3076923 42.9759077,46.3076923 C53.2928591,46.3076923 60.4914271,35.1019691 59.7001708,22.9538573 C59.3036058,16.8654179 56.8943084,11.2542345 52.5904832,7.12951596 C47.7646484,2.5045115 40.865247,0 32.2066769,0 C22.4310994,0 14.2784763,3.34964389 8.49499754,9.3562242 C3.23342752,14.8207628 0.257768079,22.2071515 0.0158877292,29.9033444 C-0.225957337,37.5984147 2.2847067,45.0326991 7.19024725,50.5534039 C12.5764856,56.6150869 20.4529712,60 30.0528308,60 C33.7060491,60 37.399627,59.3084365 40.9744745,58.1603103 C42.2172367,57.761175 43.3598348,57.332944 44.3806834,56.9024264 C44.7432477,56.7495239 45.0666353,56.6062414 45.3480702,56.4758926 C45.5262814,56.3933527 45.6567169,56.3304692 45.7365649,56.2905452 C47.2564987,55.5305783 47.8725737,53.6823535 47.1126067,52.1624197 C46.3526398,50.6424859 44.5044151,50.026411 42.9844812,50.7863779 C42.95856,50.7993385 42.8833165,50.8356137 42.7617981,50.8918959 C42.5436837,50.9929173 42.2851903,51.1074473 41.9894012,51.232189 C41.1292402,51.5949406 40.1552518,51.9599789 39.0927255,52.3012282 C36.0810345,53.2684866 32.9957663,53.8461538 30.0528308,53.8461538 C22.176042,53.8461538 15.9837594,51.1850256 11.7904143,46.4658269 C7.96365951,42.1591897 5.97285786,36.2642609 6.16669689,30.0966556 C6.36172482,23.8912213 8.74944164,17.9642647 12.9279717,13.624545 C17.5318857,8.84303198 24.0770347,6.15384615 32.2066769,6.15384615 C39.3461837,6.15384615 44.7104376,8.10109269 48.332486,11.5724071 C51.4737777,14.5829719 53.2588405,18.7403311 53.5593369,23.353835 C54.1454063,32.3517243 49.1333153,40.1538462 42.9759077,40.1538462 C42.0612277,40.1538462 41.8357085,39.9263049 41.6352171,38.6736737 C41.3591905,36.9491134 41.6607873,34.280794 42.4785942,30.9347164 C42.8531423,29.4022434 43.323079,27.770763 43.8919932,25.9865841 C44.4088124,24.3657809 46.0132622,19.6949446 45.8949332,20.0499316 C46.432311,18.4377983 45.5610495,16.6952753 43.9489162,16.1578975 C42.3367829,15.6205198 40.5942599,16.4917813 40.0568822,18.1039146 L40.0568822,18.1039146 Z" id="Stroke-1"></path>
                <path d="M41.1070555,31.0272584 C44.0585252,22.6940296 41.325892,17.0015316 35.0579311,15.1970198 C31.7305637,14.2390771 27.5262466,15.0800781 24.0372186,17.3938536 C20.1028982,20.0029282 17.3721976,24.2107546 16.5504392,29.5302472 C15.7405945,34.772566 16.3836694,39.0100561 18.4197721,42.0378309 C20.3680616,44.9350236 23.4396274,46.4615385 26.8220615,46.4615385 C30.591837,46.4615385 33.5569115,45.0439358 35.8111955,42.3383766 C37.4845393,40.3300535 38.625073,37.9351532 40.0938773,33.8805364 C40.2450786,33.4631469 40.4000608,33.0286434 40.5997452,32.4638712 C40.65074,32.3196414 41.0027844,31.3216708 41.1070684,31.027222 L41.1070555,31.0272584 Z M35.3062855,28.972778 C35.2004329,29.2716559 34.8476315,30.2717724 34.7978671,30.4125222 C34.6029984,30.9636739 34.4528718,31.3845646 34.3079701,31.7845639 C31.9134442,38.3946242 30.3194674,40.3076923 26.8220615,40.3076923 C25.4271385,40.3076923 24.2932219,39.7441554 23.526351,38.6037845 C22.4504896,37.0039311 22.0402916,34.3009646 22.6321448,30.4697574 C23.1873255,26.8759033 24.9353702,24.1822838 27.4382891,22.5224541 C29.498444,21.1562466 31.8676137,20.6823351 33.3554131,21.1106697 C34.5746239,21.4616739 35.3823684,22.056987 35.7873428,22.9006114 C36.3711791,24.1168328 36.3284413,26.0868062 35.3062984,28.9727416 L35.3062855,28.972778 Z" id="Stroke-3"></path>
            </g>
        </g>
    </g>
</svg>