<?xml version="1.0" encoding="UTF-8" standalone="no"?>
<svg width="60px" height="60px" viewBox="0 0 60 60" version="1.1" xmlns="http://www.w3.org/2000/svg" xmlns:xlink="http://www.w3.org/1999/xlink">
    <!-- Generator: Sketch 3.8.3 (29802) - http://www.bohemiancoding.com/sketch -->
    <title>debauche</title>
    <desc>Created with Sketch.</desc>
    <defs></defs>
    <g id="Page-1" stroke="none" stroke-width="1" fill="none" fill-rule="evenodd">
        <g id="debauche" fill="#FFFFFF">
            <g id="Page-1" transform="translate(2.000000, 0.000000)">
                <path d="M47.192077,35.691608 C46.1355753,25.4685357 37.6508544,17.85 27.35397,17.85 C17.0570856,17.85 8.57236468,25.4685357 7.51586304,35.691608 C7.34554283,37.3396847 8.54350121,38.8137868 10.191578,38.984107 C11.8396547,39.1544272 13.3137568,37.9564688 13.484077,36.308392 C14.223886,29.1497459 20.1261836,23.85 27.35397,23.85 C34.5817564,23.85 40.484054,29.1497459 41.223863,36.308392 C41.3941832,37.9564688 42.8682853,39.1544272 44.516362,38.984107 C46.1644388,38.8137868 47.3623972,37.3396847 47.192077,35.691608 L47.192077,35.691608 Z" id="Stroke-1"></path>
                <path d="M10.55397,48.3 L44.15397,48.3 C45.8108242,48.3 47.15397,46.9568542 47.15397,45.3 C47.15397,43.6431458 45.8108242,42.3 44.15397,42.3 L10.55397,42.3 C8.89711575,42.3 7.55397,43.6431458 7.55397,45.3 C7.55397,46.9568542 8.89711575,48.3 10.55397,48.3 L10.55397,48.3 Z" id="Stroke-3"></path>
                <path d="M16.85397,60 L37.55397,60 C39.2108242,60 40.55397,58.6568542 40.55397,57 C40.55397,55.3431458 39.2108242,54 37.55397,54 L16.85397,54 C15.1971158,54 13.85397,55.3431458 13.85397,57 C13.85397,58.6568542 15.1971158,60 16.85397,60 L16.85397,60 Z" id="Stroke-5"></path>
                <path d="M24.35397,3 L24.35397,9 C24.35397,10.6568542 25.6971158,12 27.35397,12 C29.0108242,12 30.35397,10.6568542 30.35397,9 L30.35397,3 C30.35397,1.34314575 29.0108242,0 27.35397,0 C25.6971158,0 24.35397,1.34314575 24.35397,3 L24.35397,3 Z" id="Stroke-7"></path>
                <path d="M50.0795936,11.6735081 L45.4832936,15.5303081 C44.2140759,16.595321 44.0485352,18.4875887 45.1135481,19.7568064 C46.178561,21.0260241 48.0708287,21.1915648 49.3400464,20.1265519 L53.9363464,16.2697519 C55.2055641,15.204739 55.3711048,13.3124713 54.3060919,12.0432536 C53.241079,10.7740359 51.3488113,10.6084952 50.0795936,11.6735081 L50.0795936,11.6735081 Z" id="Stroke-9"></path>
                <path d="M1.07162357,16.2697519 L5.66792357,20.1265519 C6.93714125,21.1915648 8.82940902,21.0260241 9.89442191,19.7568064 C10.9594348,18.4875887 10.7938941,16.595321 9.52467643,15.5303081 L4.92837643,11.6735081 C3.65915875,10.6084952 1.76689098,10.7740359 0.701878086,12.0432536 C-0.36313481,13.3124713 -0.197594119,15.204739 1.07162357,16.2697519 L1.07162357,16.2697519 Z" id="Stroke-11"></path>
            </g>
        </g>
    </g>
</svg>