<?xml version="1.0" encoding="UTF-8" standalone="no"?>
<svg width="60px" height="60px" viewBox="0 0 60 60" version="1.1" xmlns="http://www.w3.org/2000/svg" xmlns:xlink="http://www.w3.org/1999/xlink">
    <!-- Generator: Sketch 3.8.3 (29802) - http://www.bohemiancoding.com/sketch -->
    <title>depeche</title>
    <desc>Created with Sketch.</desc>
    <defs></defs>
    <g id="Page-1" stroke="none" stroke-width="1" fill="none" fill-rule="evenodd">
        <g id="depeche" fill="#FFFFFF">
            <g id="Group">
                <path d="M33,57 L33,51 C33,49.3431458 31.6568542,48 30,48 C28.3431458,48 27,49.3431458 27,51 L27,57 C27,58.6568542 28.3431458,60 30,60 C31.6568542,60 33,58.6568542 33,57 L33,57 Z" id="Stroke-1"></path>
                <path d="M27,3 L27,9 C27,10.6568542 28.3431458,12 30,12 C31.6568542,12 33,10.6568542 33,9 L33,3 C33,1.34314575 31.6568542,0 30,0 C28.3431458,0 27,1.34314575 27,3 L27,3 Z" id="Stroke-3"></path>
                <path d="M8.79036966,13.0330103 L13.1001697,17.3428103 C14.2717425,18.5143832 16.1712375,18.5143832 17.3428103,17.3428103 C18.5143832,16.1712375 18.5143832,14.2717425 17.3428103,13.1001697 L13.0330103,8.79036966 C11.8614375,7.61879678 9.96194253,7.61879678 8.79036966,8.79036966 C7.61879678,9.96194253 7.61879678,11.8614375 8.79036966,13.0330103 L8.79036966,13.0330103 Z" id="Stroke-5"></path>
                <path d="M51.2096303,46.9669897 L46.8998303,42.6571897 C45.7282575,41.4856168 43.8287625,41.4856168 42.6571897,42.6571897 C41.4856168,43.8287625 41.4856168,45.7282575 42.6571897,46.8998303 L46.9669897,51.2096303 C48.1385625,52.3812032 50.0380575,52.3812032 51.2096303,51.2096303 C52.3812032,50.0380575 52.3812032,48.1385625 51.2096303,46.9669897 L51.2096303,46.9669897 Z" id="Stroke-7"></path>
                <path d="M57,27 L51,27 C49.3431458,27 48,28.3431458 48,30 C48,31.6568542 49.3431458,33 51,33 L57,33 C58.6568542,33 60,31.6568542 60,30 C60,28.3431458 58.6568542,27 57,27 L57,27 Z" id="Stroke-9"></path>
                <path d="M9,27 L3,27 C1.34314575,27 0,28.3431458 0,30 C0,31.6568542 1.34314575,33 3,33 L9,33 C10.6568542,33 12,31.6568542 12,30 C12,28.3431458 10.6568542,27 9,27 L9,27 Z" id="Stroke-11"></path>
                <path d="M46.9669897,8.79036966 L42.6571897,13.1001697 C41.4856168,14.2717425 41.4856168,16.1712375 42.6571897,17.3428103 C43.8287625,18.5143832 45.7282575,18.5143832 46.8998303,17.3428103 L51.2096303,13.0330103 C52.3812032,11.8614375 52.3812032,9.96194253 51.2096303,8.79036966 C50.0380575,7.61879678 48.1385625,7.61879678 46.9669897,8.79036966 L46.9669897,8.79036966 Z" id="Stroke-13"></path>
                <path d="M13.0330103,51.2096303 L17.3428103,46.8998303 C18.5143832,45.7282575 18.5143832,43.8287625 17.3428103,42.6571897 C16.1712375,41.4856168 14.2717425,41.4856168 13.1001697,42.6571897 L8.79036966,46.9669897 C7.61879678,48.1385625 7.61879678,50.0380575 8.79036966,51.2096303 C9.96194253,52.3812032 11.8614375,52.3812032 13.0330103,51.2096303 L13.0330103,51.2096303 Z" id="Stroke-15"></path>
                <path d="M38.4,30 C38.4,34.6392458 34.6392458,38.4 30,38.4 C25.3607542,38.4 21.6,34.6392458 21.6,30 C21.6,25.3607542 25.3607542,21.6 30,21.6 C34.6392458,21.6 38.4,25.3607542 38.4,30 L38.4,30 Z M44.4,30 C44.4,22.0470458 37.9529542,15.6 30,15.6 C22.0470458,15.6 15.6,22.0470458 15.6,30 C15.6,37.9529542 22.0470458,44.4 30,44.4 C37.9529542,44.4 44.4,37.9529542 44.4,30 L44.4,30 Z" id="Stroke-17"></path>
            </g>
        </g>
    </g>
</svg>