<?xml version="1.0" encoding="UTF-8" standalone="no"?>
<svg width="60px" height="60px" viewBox="0 0 60 60" version="1.1" xmlns="http://www.w3.org/2000/svg" xmlns:xlink="http://www.w3.org/1999/xlink">
    <!-- Generator: Sketch 3.8.3 (29802) - http://www.bohemiancoding.com/sketch -->
    <title>live</title>
    <desc>Created with Sketch.</desc>
    <defs></defs>
    <g id="Page-1" stroke="none" stroke-width="1" fill="none" fill-rule="evenodd">
        <g id="live" fill="#FFFFFF">
            <g>
                <path d="M29.9230769,22.8340923 C33.8382008,22.8340923 37.012,26.0078915 37.012,29.9230154 C37.012,31.6223531 38.3895854,32.9999385 40.0889231,32.9999385 C41.7882608,32.9999385 43.1658462,31.6223531 43.1658462,29.9230154 C43.1658462,22.6092162 37.2368762,16.6802462 29.9230769,16.6802462 C28.2237392,16.6802462 26.8461538,18.0578315 26.8461538,19.7571692 C26.8461538,21.4565069 28.2237392,22.8340923 29.9230769,22.8340923 L29.9230769,22.8340923 Z" id="Stroke-1"></path>
                <path d="M29.9230769,37.0120615 C26.0079531,37.0120615 22.8341538,33.8382623 22.8341538,29.9231385 C22.8341538,28.2238008 21.4565685,26.8462154 19.7572308,26.8462154 C18.0578931,26.8462154 16.6803077,28.2238008 16.6803077,29.9231385 C16.6803077,37.2369377 22.6092777,43.1659077 29.9230769,43.1659077 C31.6224146,43.1659077 33,41.7883223 33,40.0889846 C33,38.3896469 31.6224146,37.0120615 29.9230769,37.0120615 L29.9230769,37.0120615 Z" id="Stroke-3"></path>
                <path d="M29.9230769,14.3812615 C38.5065085,14.3812615 45.4649231,21.3396762 45.4649231,29.9231077 C45.4649231,31.6224454 46.8425085,33.0000308 48.5418462,33.0000308 C50.2411838,33.0000308 51.6187692,31.6224454 51.6187692,29.9231077 C51.6187692,17.9410008 41.9051838,8.22741538 29.9230769,8.22741538 C28.2237392,8.22741538 26.8461538,9.60500077 26.8461538,11.3043385 C26.8461538,13.0036762 28.2237392,14.3812615 29.9230769,14.3812615 L29.9230769,14.3812615 Z" id="Stroke-5"></path>
                <path d="M29.9230769,45.4648923 C21.3396454,45.4648923 14.3812308,38.5064777 14.3812308,29.9230462 C14.3812308,28.2237085 13.0036454,26.8461231 11.3043077,26.8461231 C9.60497,26.8461231 8.22738462,28.2237085 8.22738462,29.9230462 C8.22738462,41.9051531 17.94097,51.6187385 29.9230769,51.6187385 C31.6224146,51.6187385 33,50.2411531 33,48.5418154 C33,46.8424777 31.6224146,45.4648923 29.9230769,45.4648923 L29.9230769,45.4648923 Z" id="Stroke-7"></path>
                <path d="M29.9230769,6.15384615 C43.0505085,6.15384615 53.6923077,16.7956454 53.6923077,29.9230769 C53.6923077,31.6224146 55.0698931,33 56.7692308,33 C58.4685685,33 59.8461538,31.6224146 59.8461538,29.9230769 C59.8461538,13.39697 46.4491838,0 29.9230769,0 C28.2237392,0 26.8461538,1.37758539 26.8461538,3.07692308 C26.8461538,4.77626077 28.2237392,6.15384615 29.9230769,6.15384615 L29.9230769,6.15384615 Z" id="Stroke-9"></path>
                <path d="M29.9230769,53.6923077 C16.7956454,53.6923077 6.15384615,43.0505085 6.15384615,29.9230769 C6.15384615,28.2237392 4.77626077,26.8461538 3.07692308,26.8461538 C1.37758539,26.8461538 0,28.2237392 0,29.9230769 C0,46.4491838 13.39697,59.8461538 29.9230769,59.8461538 C31.6224146,59.8461538 33,58.4685685 33,56.7692308 C33,55.0698931 31.6224146,53.6923077 29.9230769,53.6923077 L29.9230769,53.6923077 Z" id="Stroke-11"></path>
            </g>
        </g>
    </g>
</svg>